<svg width="22" height="22" viewBox="0 0 22 22" fill="none" xmlns="http://www.w3.org/2000/svg">
<path d="M3 11L3.97088 16.0971C4.568 19.232 7.3088 21.5 10.5 21.5V21.5C13.6912 21.5 16.432 19.232 17.0291 16.0971L18 11" stroke="black" stroke-width="0.7"/>
<path d="M2.5 8L1 9V10.5L2.6716 10.8519C7.83395 11.9387 13.166 11.9387 18.3284 10.8519L20 10.5V9L18.5 8V7C18.5 3.68629 15.8137 1 12.5 1H8.5C5.18629 1 2.5 3.68629 2.5 7V8Z" stroke="black" stroke-width="0.7"/>
<path d="M8.5 3V7.5" stroke="black" stroke-width="0.7" stroke-linecap="round"/>
<path d="M12.5 3V7.5" stroke="black" stroke-width="0.7" stroke-linecap="round"/>
</svg>
