<svg width="22" height="22" viewBox="0 0 22 22" fill="none" xmlns="http://www.w3.org/2000/svg">
<path d="M6.63738 18.83L9.97719 6.36569L12.7007 7.09545L9.36086 19.5598C9.15934 20.3118 8.38631 20.7582 7.63424 20.5566C6.88218 20.3551 6.43586 19.5821 6.63738 18.83Z" stroke="black" stroke-width="0.7"/>
<path d="M10.2085 2.77891L9.47875 5.50239C9.37799 5.87842 9.60115 6.26494 9.97718 6.3657L12.7007 7.09545C13.0767 7.19621 13.4632 6.97305 13.564 6.59702L14.2937 3.87354C14.3945 3.49751 14.1713 3.11099 13.7953 3.01023L11.0718 2.28048C10.6958 2.17972 10.3093 2.40288 10.2085 2.77891Z" stroke="black" stroke-width="0.7"/>
<path d="M1.72842 4.43907L1.28389 4.76608L1.89847 4.71505C4.45498 4.50276 7.02894 4.73368 9.50684 5.39763L9.85768 4.08827L10.2085 2.7789L8.84816 2.60209C6.32688 2.2744 3.77642 2.93245 1.72842 4.43907Z" stroke="black" stroke-width="0.7"/>
<path d="M20.8076 9.55133L21.0291 10.0568L20.5224 9.70531C18.4145 8.24321 16.0699 7.15621 13.592 6.49226L13.9429 5.1829L14.2937 3.87353L15.5602 4.40059C17.9076 5.37744 19.7873 7.22256 20.8076 9.55133Z" stroke="black" stroke-width="0.7"/>
</svg>
