<svg width="259" height="35" viewBox="0 0 259 35" fill="none" xmlns="http://www.w3.org/2000/svg">
<path d="M0 6.10352e-05H1.68335C8.29514 6.10352e-05 13.6551 5.35998 13.6551 11.9718V34.8963H11.9717C5.35992 34.8963 0 29.5364 0 22.9246V6.10352e-05Z" fill="url(#paint0_linear_108_108)"/>
<path d="M44.0001 -2.28882e-05H42.3167C35.7049 -2.28882e-05 30.345 5.3599 30.345 11.9717V34.8962H32.0284C38.6402 34.8962 44.0001 29.5363 44.0001 22.9245V-2.28882e-05Z" fill="url(#paint1_linear_108_108)"/>
<path d="M15 18H17.0283C23.6401 18 29 23.3599 29 29.9717V35C28.2863 35 27.6135 35 26.971 35C20.3592 35 15 29.6401 15 23.0283V18Z" fill="#00E317"/>
<path d="M29.0003 0H27.2744C20.4954 0 15 5.49542 15 12.2744V17C15.6028 17 16.1764 17 16.7273 17C23.5062 17 29.0003 11.5046 29.0003 4.72563V0Z" fill="url(#paint2_linear_108_108)"/>
<path d="M74.3471 11.9775L70.3459 14.4272C69.2571 12.5763 67.2973 11.6508 64.4665 11.6508C62.4341 11.6508 60.8009 12.1589 59.567 13.1751C58.3512 14.1732 57.7433 15.5977 57.7433 17.4486C57.7433 19.2813 58.3512 20.7058 59.567 21.722C60.8009 22.7201 62.4341 23.2191 64.4665 23.2191C67.3336 23.2191 69.3206 22.2755 70.4275 20.3883L74.4016 22.8108C73.4761 24.2262 72.1605 25.3331 70.4548 26.1316C68.749 26.93 66.7529 27.3292 64.4665 27.3292C60.9643 27.3292 58.1697 26.4582 56.0829 24.7162C54.0142 22.9741 52.9799 20.5516 52.9799 17.4486C52.9799 14.3274 54.0142 11.8958 56.0829 10.1538C58.1697 8.41173 60.9643 7.54071 64.4665 7.54071C66.7166 7.54071 68.6946 7.93086 70.4003 8.71115C72.1061 9.49144 73.4217 10.5802 74.3471 11.9775ZM91.5411 14.2367C93.1561 15.5614 93.9636 17.4032 93.9636 19.7622C93.9636 22.1212 93.1561 23.9722 91.5411 25.315C89.926 26.6397 87.7666 27.302 85.0628 27.302C82.3591 27.302 80.1996 26.6397 78.5846 25.315C76.9696 23.9722 76.1621 22.1212 76.1621 19.7622C76.1621 17.4032 76.9696 15.5614 78.5846 14.2367C80.1996 12.8939 82.3591 12.2225 85.0628 12.2225C87.7666 12.2225 89.926 12.8939 91.5411 14.2367ZM80.6261 19.7622C80.6261 20.9599 81.0253 21.8763 81.8237 22.5114C82.6222 23.1465 83.7019 23.4641 85.0628 23.4641C86.4238 23.4641 87.5035 23.1465 88.302 22.5114C89.1185 21.8763 89.5268 20.9599 89.5268 19.7622C89.5268 18.5827 89.1185 17.6754 88.302 17.0403C87.5035 16.4052 86.4238 16.0876 85.0628 16.0876C83.7019 16.0876 82.6222 16.4052 81.8237 17.0403C81.0253 17.6754 80.6261 18.5827 80.6261 19.7622ZM113.407 12.5491V26.9481H109.079V25.3694C107.718 26.6397 105.921 27.2748 103.689 27.2748C101.657 27.2748 100.015 26.7304 98.7625 25.6416C97.5286 24.5528 96.9116 23.1102 96.9116 21.3137V12.5491H101.321V20.4155C101.321 21.3772 101.611 22.1212 102.192 22.6475C102.773 23.1737 103.626 23.4368 104.751 23.4368C105.894 23.4368 106.874 23.1284 107.69 22.5114C108.525 21.8944 108.961 21.0415 108.997 19.9528V12.5491H113.407ZM129.819 26.9481V19.0545C129.801 18.1109 129.502 17.3851 128.921 16.877C128.34 16.3507 127.487 16.0876 126.362 16.0876C125.147 16.0876 124.139 16.3961 123.341 17.0131C122.561 17.63 122.152 18.5011 122.116 19.6261V26.9481H117.707V12.5491H122.034V14.155C123.377 12.8666 125.174 12.2225 127.424 12.2225C129.438 12.2225 131.071 12.7759 132.323 13.8828C133.575 14.9716 134.202 16.4142 134.202 18.2107V26.9481H129.819ZM136.541 16.5231V12.7941H139.1V10.8615L143.509 7.92178V12.7941H146.476V16.5231H143.509V21.477C143.509 22.2029 143.618 22.711 143.836 23.0013C144.054 23.2735 144.426 23.4096 144.952 23.4096C145.424 23.4096 146.023 23.328 146.748 23.1646L146.15 26.9209C145.424 27.1387 144.616 27.2476 143.727 27.2476C142.148 27.2476 140.978 26.8211 140.216 25.9682C139.472 25.1154 139.1 23.7816 139.1 21.967V16.5231H136.541ZM149.897 26.9481V12.5491H154.225V14.1278C155.459 12.8576 156.983 12.2225 158.797 12.2225C159.596 12.2225 160.104 12.2315 160.322 12.2497C160.485 13.411 160.721 14.9172 161.029 16.7681C160.539 16.4959 159.723 16.3598 158.58 16.3598C157.273 16.3598 156.23 16.6411 155.449 17.2036C154.687 17.7661 154.306 18.6281 154.306 19.7894V26.9481H149.897ZM180.496 12.5491L172.984 28.3636C172.131 30.1056 171.242 31.3486 170.316 32.0926C169.391 32.8366 168.284 33.2086 166.996 33.2086C166.542 33.2086 165.952 33.1179 165.226 32.9364L164.519 28.9352C165.045 29.0985 165.544 29.1801 166.016 29.1801C167.104 29.1801 167.939 28.7809 168.52 27.9825L168.656 27.7647C168.765 27.6377 168.828 27.556 168.846 27.5198L161.225 12.5491H166.016L171.133 22.6475L175.787 12.5491H180.496ZM198.192 26.9481V18.0202H187.713V26.9481H183.058V7.89457H187.713V13.8828H198.192V7.89457H202.847V26.9481H198.192ZM223.906 12.5491V26.9481H219.578V25.3694C218.217 26.6397 216.42 27.2748 214.188 27.2748C212.156 27.2748 210.514 26.7304 209.262 25.6416C208.028 24.5528 207.411 23.1102 207.411 21.3137V12.5491H211.82V20.4155C211.82 21.3772 212.11 22.1212 212.691 22.6475C213.272 23.1737 214.125 23.4368 215.25 23.4368C216.393 23.4368 217.373 23.1284 218.189 22.5114C219.024 21.8944 219.46 21.0415 219.496 19.9528V12.5491H223.906ZM240.318 26.9481V19.0545C240.3 18.1109 240.001 17.3851 239.42 16.877C238.839 16.3507 237.986 16.0876 236.861 16.0876C235.646 16.0876 234.638 16.3961 233.84 17.0131C233.06 17.63 232.651 18.5011 232.615 19.6261V26.9481H228.206V12.5491H232.533V14.155C233.876 12.8666 235.673 12.2225 237.923 12.2225C239.937 12.2225 241.57 12.7759 242.822 13.8828C244.075 14.9716 244.701 16.4142 244.701 18.2107V26.9481H240.318ZM247.04 16.5231V12.7941H249.599V10.8615L254.008 7.92178V12.7941H256.975V16.5231H254.008V21.477C254.008 22.2029 254.117 22.711 254.335 23.0013C254.553 23.2735 254.925 23.4096 255.451 23.4096C255.923 23.4096 256.522 23.328 257.247 23.1646L256.649 26.9209C255.923 27.1387 255.115 27.2476 254.226 27.2476C252.647 27.2476 251.477 26.8211 250.715 25.9682C249.971 25.1154 249.599 23.7816 249.599 21.967V16.5231H247.04Z" fill="black"/>
<defs>
<linearGradient id="paint0_linear_108_108" x1="12.3439" y1="8.59769" x2="3.46902" y2="30.0727" gradientUnits="userSpaceOnUse">
<stop stop-color="#4900E3"/>
<stop offset="1" stop-color="#8F00FF"/>
</linearGradient>
<linearGradient id="paint1_linear_108_108" x1="31.6562" y1="8.5976" x2="40.5311" y2="30.0726" gradientUnits="userSpaceOnUse">
<stop stop-color="#4900E3"/>
<stop offset="1" stop-color="#8F00FF"/>
</linearGradient>
<linearGradient id="paint2_linear_108_108" x1="16.3443" y1="4.18841" x2="18.6602" y2="15.9821" gradientUnits="userSpaceOnUse">
<stop stop-color="#4900E3"/>
<stop offset="1" stop-color="#8F00FF"/>
</linearGradient>
</defs>
</svg>
