<svg width="20" height="18" viewBox="0 0 20 18" fill="none" xmlns="http://www.w3.org/2000/svg">
  <path d="M18.3176 7.89229C18.0828 6.00247 17.1872 4.2566 15.7891 2.96352C14.3911 1.67044 12.5808 0.913492 10.6784 0.826583C8.77606 0.739675 6.90426 1.32841 5.39416 2.48863C3.88405 3.64885 2.83297 5.30579 2.42684 7.16633L3.03235 7.2985C3.40728 5.58087 4.37763 4.0512 5.77175 2.98009C7.16586 1.90898 8.89389 1.36547 10.6501 1.4457C12.4064 1.52594 14.0777 2.22474 15.3683 3.4185C16.6589 4.61227 17.4858 6.22404 17.7025 7.9687L18.3176 7.89229Z" fill="#5412E0" />
  <path d="M1.19948 3.26325L2.63627 7.36363L6.73666 5.92683" stroke="#5412E0" stroke-width="0.7" />
  <path d="M1.68218 9.882C1.91697 11.7718 2.8126 13.5177 4.21063 14.8108C5.60866 16.1039 7.41897 16.8608 9.32134 16.9477C11.2237 17.0346 13.0955 16.4459 14.6056 15.2857C16.1157 14.1254 17.1668 12.4685 17.5729 10.608L16.8921 10.4594C16.5211 12.1592 15.5607 13.6731 14.1811 14.7331C12.8014 15.7931 11.0912 16.331 9.35314 16.2516C7.61506 16.1722 5.96108 15.4806 4.68379 14.2992C3.40649 13.1178 2.58821 11.5227 2.37369 9.79608L1.68218 9.882Z" fill="#5412E0" />
  <path d="M18.8098 14.7368L17.373 10.6364L13.2726 12.0732" stroke="#5412E0" stroke-width="0.7" />
</svg>